HIERARCHY
ROOT joint_0
{
	OFFSET 0.000000 0.000000 0.000000
	CHANNELS 6 Xposition Yposition Zposition Zrotation Yrotation Xrotation 
	JOINT joint_1
	{
		OFFSET 7.566162 2.250183 114.799927
		CHANNELS 3 Zrotation Yrotation Xrotation
		JOINT joint_2
		{
			OFFSET -5.201660 -0.414001 104.936035
			CHANNELS 3 Zrotation Yrotation Xrotation
			JOINT joint_3
			{
				OFFSET -6.923584 -0.419739 104.718018
				CHANNELS 3 Zrotation Yrotation Xrotation
				JOINT joint_4
				{
					OFFSET 3.108887 2.881104 149.449951
					CHANNELS 3 Zrotation Yrotation Xrotation
					JOINT joint_5
					{
						OFFSET 19.988770 5.920349 90.786987
						CHANNELS 3 Zrotation Yrotation Xrotation
						End Site
						{
							OFFSET 0.000000 0.000000 0.000000
						}
					}
				}
				JOINT joint_6
				{
					OFFSET 9.283936 -30.015930 84.410034
					CHANNELS 3 Zrotation Yrotation Xrotation
					JOINT joint_7
					{
						OFFSET 47.243164 -155.716736 -23.241089
						CHANNELS 3 Zrotation Yrotation Xrotation
						JOINT joint_8
						{
							OFFSET 31.323730 -15.356873 -268.798950
							CHANNELS 3 Zrotation Yrotation Xrotation
							JOINT joint_9
							{
								OFFSET 28.122314 -2.114624 -262.450012
								CHANNELS 3 Zrotation Yrotation Xrotation
								End Site
								{
									OFFSET 0.000000 0.000000 0.000000
								}
							}
						}
					}
				}
				JOINT joint_10
				{
					OFFSET -5.580566 33.311218 83.498047
					CHANNELS 3 Zrotation Yrotation Xrotation
					JOINT joint_11
					{
						OFFSET -22.773438 160.515381 -27.138062
						CHANNELS 3 Zrotation Yrotation Xrotation
						JOINT joint_12
						{
							OFFSET 27.004395 30.848877 -267.937988
							CHANNELS 3 Zrotation Yrotation Xrotation
							JOINT joint_13
							{
								OFFSET 32.625000 14.824585 -261.518005
								CHANNELS 3 Zrotation Yrotation Xrotation
								End Site
								{
									OFFSET 0.000000 0.000000 0.000000
								}
							}
						}
					}
				}
			}
		}
	}
	JOINT joint_14
	{
		OFFSET 20.623535 -83.447632 -106.174011
		CHANNELS 3 Zrotation Yrotation Xrotation
		JOINT joint_15
		{
			OFFSET 0.661865 -23.563843 -459.915039
			CHANNELS 3 Zrotation Yrotation Xrotation
			JOINT joint_16
			{
				OFFSET -23.461670 -28.727966 -444.760971
				CHANNELS 3 Zrotation Yrotation Xrotation
				JOINT joint_17
				{
					OFFSET 178.992920 54.047363 -80.113001
					CHANNELS 3 Zrotation Yrotation Xrotation
					End Site
					{
						OFFSET 0.000000 0.000000 0.000000
					}
				}
			}
		}
	}
	JOINT joint_18
	{
		OFFSET -19.571533 84.686279 -105.380005
		CHANNELS 3 Zrotation Yrotation Xrotation
		JOINT joint_19
		{
			OFFSET -22.949951 3.639404 -459.933044
			CHANNELS 3 Zrotation Yrotation Xrotation
			JOINT joint_20
			{
				OFFSET -33.690674 4.092651 -445.010971
				CHANNELS 3 Zrotation Yrotation Xrotation
				JOINT joint_21
				{
					OFFSET 187.419678 18.953857 -76.759001
					CHANNELS 3 Zrotation Yrotation Xrotation
					End Site
					{
						OFFSET 0.000000 0.000000 0.000000
					}
				}
			}
		}
	}
}
MOTION
Frames: 14
Frame Time: 0.016667
-2456.183838 956.330444 1073.792969 -18.657901 1.977850 -2.274963 1.718336 8.183003 -0.921667 0.967892 -1.266258 0.008505 0.910116 1.653983 -0.304334 0.574877 -5.939538 -0.326370 0.000000 0.000000 0.000000 4.483790 8.053079 -6.696109 -4.283874 5.120123 -13.663542 2.709988 -64.848878 41.866610 0.000000 0.000000 0.000000 2.732714 2.881970 -1.673388 12.979614 5.115866 8.738522 -0.441145 -66.704211 -46.711886 0.000000 0.000000 0.000000 3.990918 -8.813687 -8.848279 0.938011 42.756764 -1.493976 -3.800095 -1.499306 -0.425666 0.000000 0.000000 0.000000 1.440800 -23.520917 16.554181 -0.082404 31.197214 -3.436786 -5.132334 -3.166665 -1.587458 0.000000 0.000000 0.000000 
-2444.301514 962.964600 1067.137939 -19.132597 1.434452 -1.847758 1.789042 8.693871 -1.961926 0.895985 -1.311733 0.194519 0.795478 1.742060 -0.447032 0.530057 -6.043182 -0.069917 0.000000 0.000000 0.000000 4.927699 8.499895 -6.619197 -4.422555 5.229648 -14.244397 2.444481 -66.910173 41.195267 0.000000 0.000000 0.000000 2.454397 2.254498 -1.409809 13.274466 4.479022 8.105799 -0.276704 -66.930608 -48.218067 0.000000 0.000000 0.000000 5.308165 -10.603101 -10.292587 1.736902 48.056578 -0.607805 -4.174554 -1.305855 -0.391157 0.000000 0.000000 0.000000 1.918759 -25.361974 15.990141 0.280553 37.408592 -3.135119 -6.472257 -4.337310 -1.949772 0.000000 0.000000 0.000000 
-2432.796143 968.308960 1062.337036 -19.569050 0.919230 -1.582639 1.903625 9.322159 -2.740703 0.784997 -1.459536 0.335071 0.640747 1.809749 -0.553570 0.502841 -6.150390 0.116616 0.000000 0.000000 0.000000 5.212324 8.757829 -6.532647 -4.361253 5.253922 -14.591312 2.360143 -68.265897 40.192255 0.000000 0.000000 0.000000 2.206501 1.676740 -1.284574 13.475217 3.920784 7.576151 -0.126760 -66.571467 -49.470589 0.000000 0.000000 0.000000 6.389916 -12.229532 -11.253942 2.447115 52.667360 0.072091 -4.691499 -0.780137 -0.482330 0.000000 0.000000 0.000000 2.307811 -26.404059 15.679905 0.705618 42.047873 -2.959398 -7.451602 -4.812911 -2.258284 0.000000 0.000000 0.000000 
-2421.488281 972.088440 1060.031006 -19.680610 0.673068 -1.619662 2.004406 9.703814 -3.031264 0.540329 -1.561433 0.414452 0.343605 1.880242 -0.597650 0.508303 -6.295623 0.176220 0.000000 0.000000 0.000000 5.212860 8.764684 -6.488570 -4.014418 5.194372 -14.589845 2.548510 -68.749774 38.788099 0.000000 0.000000 0.000000 2.037943 1.153589 -1.421089 13.543890 3.472237 7.304333 -0.013761 -65.375509 -50.393684 0.000000 0.000000 0.000000 6.889396 -13.853445 -11.467634 2.819763 56.495833 0.357950 -5.571821 -0.037090 -0.773991 0.000000 0.000000 0.000000 2.104040 -26.523808 15.899584 0.947342 44.003802 -3.391706 -7.853130 -4.879393 -2.403065 0.000000 0.000000 0.000000 
-2410.556396 974.579163 1059.578979 -19.580476 0.607246 -1.803856 2.074371 9.905193 -3.084542 0.216594 -1.619349 0.472879 -0.041538 1.954968 -0.608705 0.532775 -6.460362 0.164926 0.000000 0.000000 0.000000 5.058330 8.570371 -6.432901 -3.504312 5.048151 -14.347572 2.908268 -68.582492 37.132687 0.000000 0.000000 0.000000 1.896096 0.692886 -1.686888 13.497230 3.105737 7.141910 0.065993 -63.633198 -51.032177 0.000000 0.000000 0.000000 7.007889 -15.554333 -11.234103 2.980213 59.880581 0.384325 -6.743772 0.661331 -1.157312 0.000000 0.000000 0.000000 1.591459 -26.183509 16.378528 1.101065 44.784811 -4.171837 -7.948742 -4.903675 -2.441549 0.000000 0.000000 0.000000 
-2400.239502 975.597107 1060.777954 -19.447984 0.616555 -2.002456 2.104165 9.976509 -3.107116 -0.083710 -1.648963 0.523461 -0.397884 1.997789 -0.604984 0.553598 -6.547041 0.137033 0.000000 0.000000 0.000000 4.907885 8.194662 -6.304895 -3.030435 4.748515 -14.109761 3.296475 -67.644284 35.750629 0.000000 0.000000 0.000000 1.779617 0.343777 -1.905679 13.319830 2.815884 6.935700 0.098166 -61.656169 -51.285588 0.000000 0.000000 0.000000 6.881081 -17.094454 -10.778931 2.993910 62.506059 0.229512 -8.061338 0.743627 -1.438633 0.000000 0.000000 0.000000 1.078484 -25.603137 16.730885 1.212840 44.916509 -4.728842 -7.860990 -4.813835 -2.421535 0.000000 0.000000 0.000000 
-2390.637939 974.785889 1063.985962 -19.330684 0.676050 -2.200453 2.082152 9.876529 -3.132368 -0.337665 -1.644580 0.551359 -0.693398 1.988527 -0.588981 0.561805 -6.483790 0.096592 0.000000 0.000000 0.000000 4.801967 7.569178 -6.027617 -2.638974 4.184188 -13.979615 3.704073 -65.590782 34.855713 0.000000 0.000000 0.000000 1.689216 0.161623 -2.000588 12.989578 2.631442 6.609660 0.078256 -59.485256 -51.060539 0.000000 0.000000 0.000000 6.493346 -18.383342 -10.047034 2.814671 64.386443 -0.178267 -9.592467 -0.241637 -1.529185 0.000000 0.000000 0.000000 0.634231 -24.757932 16.802625 1.304923 44.373436 -4.787042 -7.530725 -4.611333 -2.319693 0.000000 0.000000 0.000000 
-2381.651367 972.502930 1068.844971 -19.228077 0.810979 -2.440144 2.010771 9.636272 -3.081479 -0.542893 -1.606547 0.549275 -0.921939 1.946330 -0.561598 0.567083 -6.343515 0.028465 0.000000 0.000000 0.000000 4.684226 6.778568 -5.662982 -2.263657 3.463611 -13.846067 4.135897 -62.774916 34.173873 0.000000 0.000000 0.000000 1.618893 0.087957 -2.051520 12.547240 2.521014 6.225523 0.016739 -57.151593 -50.442446 0.000000 0.000000 0.000000 5.879317 -19.547847 -9.025099 2.447669 65.601843 -0.821315 -11.245516 -1.927744 -1.520880 0.000000 0.000000 0.000000 0.230894 -23.681119 16.771519 1.355595 43.180665 -4.600232 -7.016361 -4.308442 -2.158193 0.000000 0.000000 0.000000 
-2373.219727 969.641357 1074.079956 -19.225268 0.991750 -2.675273 1.920287 9.417678 -2.980959 -0.653662 -1.569361 0.529967 -1.032118 1.902196 -0.533049 0.573242 -6.248395 -0.030693 0.000000 0.000000 0.000000 4.595180 6.065288 -5.382326 -1.928027 2.863906 -13.634641 4.486381 -60.142697 33.487530 0.000000 0.000000 0.000000 1.567155 0.006750 -2.121620 12.078559 2.392657 5.844237 -0.075169 -54.956262 -49.630166 0.000000 0.000000 0.000000 5.287883 -20.676591 -8.021078 2.027541 65.945294 -1.480233 -12.597513 -3.622842 -1.484145 0.000000 0.000000 0.000000 -0.004192 -22.688944 16.766480 1.349838 41.938350 -4.396141 -6.616521 -3.837094 -2.056264 0.000000 0.000000 0.000000 
-2365.477783 966.455383 1079.582031 -19.366074 1.231699 -2.905563 1.838093 9.278083 -2.833744 -0.642910 -1.535599 0.498647 -0.992353 1.860683 -0.499237 0.578662 -6.252113 -0.048687 0.000000 0.000000 0.000000 4.575376 5.488861 -5.293588 -1.640280 2.514332 -13.255113 4.713923 -57.944814 32.619189 0.000000 0.000000 0.000000 1.535638 -0.143140 -2.226737 11.564214 2.183540 5.454129 -0.212853 -52.791627 -48.662409 0.000000 0.000000 0.000000 4.809806 -21.846106 -7.163153 1.581861 65.219701 -2.033442 -13.576304 -4.938307 -1.504473 0.000000 0.000000 0.000000 -0.042289 -21.936150 16.859133 1.267323 40.864558 -4.249272 -6.466324 -3.115788 -2.072756 0.000000 0.000000 0.000000 
-2358.290771 962.691772 1085.458984 -19.590172 1.518537 -3.124024 1.749144 9.158464 -2.651326 -0.550957 -1.498901 0.457365 -0.851940 1.813559 -0.460951 0.583880 -6.293822 -0.053968 0.000000 0.000000 0.000000 4.595727 4.980066 -5.309025 -1.402690 2.286777 -12.802489 4.863914 -55.950209 31.760439 0.000000 0.000000 0.000000 1.523888 -0.294456 -2.344239 11.030171 1.957617 5.052065 -0.371678 -50.771155 -47.519023 0.000000 0.000000 0.000000 4.390066 -22.922439 -6.358259 1.062167 63.510658 -2.562133 -14.181338 -6.082997 -1.541559 0.000000 0.000000 0.000000 0.048009 -21.265266 16.982430 1.128757 39.744345 -4.105710 -6.422300 -2.237341 -2.146112 0.000000 0.000000 0.000000 
-2351.195312 958.471680 1090.754028 -19.809955 1.799466 -3.271700 1.624275 9.009782 -2.483486 -0.440083 -1.451732 0.425830 -0.689531 1.766257 -0.436497 0.594660 -6.318272 -0.094414 0.000000 0.000000 0.000000 4.593880 4.576245 -5.334946 -1.231539 2.091451 -12.475428 4.981311 -54.392916 31.290137 0.000000 0.000000 0.000000 1.522157 -0.357824 -2.472110 10.616081 1.826584 4.716236 -0.494693 -49.497989 -46.336745 0.000000 0.000000 0.000000 4.049668 -23.708811 -5.605417 0.501887 61.040625 -3.149717 -14.149345 -7.252080 -1.454583 0.000000 0.000000 0.000000 0.220299 -20.543788 17.067612 0.987049 38.543165 -4.026668 -6.356686 -1.432729 -2.206363 0.000000 0.000000 0.000000 
-2344.070312 953.885986 1095.327026 -20.008157 2.064044 -3.301343 1.446028 8.825101 -2.378011 -0.326574 -1.400839 0.426848 -0.528499 1.721897 -0.438685 0.617209 -6.320149 -0.196626 0.000000 0.000000 0.000000 4.543532 4.264323 -5.337882 -1.140999 1.862732 -12.388364 5.095642 -53.298374 31.468122 0.000000 0.000000 0.000000 1.509906 -0.269179 -2.625592 10.374632 1.869984 4.482284 -0.568296 -49.308810 -45.068690 0.000000 0.000000 0.000000 3.750224 -24.086805 -4.904758 -0.106223 57.614203 -3.908277 -13.549320 -8.487011 -1.215136 0.000000 0.000000 0.000000 0.474702 -19.671432 17.052493 0.863484 37.128616 -4.042866 -6.199874 -0.753651 -2.222408 0.000000 0.000000 0.000000 
-2337.036865 948.843872 1099.317017 -20.176208 2.305314 -3.241755 1.233853 8.656375 -2.314188 -0.204442 -1.362318 0.450583 -0.363801 1.676239 -0.452251 0.645279 -6.303480 -0.332753 0.000000 0.000000 0.000000 4.471294 4.055294 -5.362096 -1.105601 1.679334 -12.420636 5.195117 -52.623686 32.042841 0.000000 0.000000 0.000000 1.506267 -0.086302 -2.784185 10.240078 2.018340 4.306215 -0.617639 -49.810017 -43.777761 0.000000 0.000000 0.000000 3.528094 -24.062493 -4.315085 -0.679248 53.196273 -4.614326 -12.321848 -9.411169 -0.856178 0.000000 0.000000 0.000000 0.793731 -18.723656 16.980178 0.742558 35.615189 -4.115046 -6.014084 -0.126464 -2.224364 0.000000 0.000000 0.000000 
